<svg id="Layer_1" data-name="Layer 1" xmlns="http://www.w3.org/2000/svg" viewBox="0 0 501 501"><defs><style>.cls-1{fill:#818181;}</style></defs><path id="Path_363" data-name="Path 363" class="cls-1" d="M340.77,148.33H318.9V137a7.65,7.65,0,1,0-15.2-1.81,7.83,7.83,0,0,0,0,1.81v11.4H197.29V137a7.66,7.66,0,0,0-15.21-1.81,7.83,7.83,0,0,0,0,1.81v11.4H160.23a31.39,31.39,0,0,0-31.35,31.3V341.22a31.38,31.38,0,0,0,31.35,31.36H340.77a31.38,31.38,0,0,0,31.35-31.36V179.69A31.38,31.38,0,0,0,340.77,148.33Zm-180.54,15.2h21.85v7.66A7.66,7.66,0,1,0,197.29,173a7.83,7.83,0,0,0,0-1.81v-7.66H303.7v7.66A7.65,7.65,0,1,0,318.9,173a7.83,7.83,0,0,0,0-1.81v-7.66h21.85a16.16,16.16,0,0,1,16.15,16.16v18.05H144.08V179.69A16.18,16.18,0,0,1,160.23,163.53ZM340.77,357.37H160.23a16.17,16.17,0,0,1-16.15-16.15V212.94H356.9V341.22A16.16,16.16,0,0,1,340.77,357.37Z"/></svg>