<svg id="Layer_1" data-name="Layer 1" xmlns="http://www.w3.org/2000/svg" viewBox="0 0 501 501"><defs><style>.cls-1{fill:#818181;}</style></defs><g id="Group_421" data-name="Group 421"><g id="Group_420" data-name="Group 420"><path id="Path_393" data-name="Path 393" class="cls-1" d="M250.5,124.63A125.87,125.87,0,1,0,376.37,250.5,125.88,125.88,0,0,0,250.5,124.63Zm0,233.77A107.92,107.92,0,1,1,358.42,250.48h0A107.92,107.92,0,0,1,250.5,358.4Z"/></g></g><g id="Group_423" data-name="Group 423"><g id="Group_422" data-name="Group 422"><path id="Path_394" data-name="Path 394" class="cls-1" d="M250.52,169.59a9,9,0,0,0-9,9v62.94H178.59a9,9,0,0,0-.77,18h72.7a9,9,0,0,0,9-9V178.59A9,9,0,0,0,250.52,169.59Z"/></g></g></svg>