<svg id="Layer_1" data-name="Layer 1" xmlns="http://www.w3.org/2000/svg" viewBox="0 0 501 501"><defs><style>.cls-1{fill:#818181;}</style></defs><g id="Group_362" data-name="Group 362"><g id="Group_361" data-name="Group 361"><g id="Group_360" data-name="Group 360"><path id="Path_365" data-name="Path 365" class="cls-1" d="M250.53,163.26a47.3,47.3,0,1,0,47.29,47.3h0A47.35,47.35,0,0,0,250.53,163.26Zm0,78.93a31.64,31.64,0,1,1,31.58-31.69v.06A31.66,31.66,0,0,1,250.53,242.19Z"/></g></g><g id="Group_359" data-name="Group 359"><g id="Group_358" data-name="Group 358"><path id="Path_364" data-name="Path 364" class="cls-1" d="M250.53,116A94.62,94.62,0,0,0,170.05,260.3l75.1,121a7.88,7.88,0,0,0,6.69,3.73h0a7.9,7.9,0,0,0,6.7-3.84L331.72,259A94.63,94.63,0,0,0,250.53,116Zm67.73,135L251.73,362,183.45,252a78.88,78.88,0,1,1,134.81-1.07Z"/></g></g></g></svg>