<svg id="Capa_1" data-name="Capa 1" xmlns="http://www.w3.org/2000/svg" viewBox="0 0 419.14 419.14"><defs><style>.cls-1{fill:#3c3c3c;}</style></defs><path id="Path_379" data-name="Path 379" class="cls-1" d="M328.35,220.72a35.47,35.47,0,0,0-31-36.52,21,21,0,0,0-14.61-14.26,75,75,0,0,0-73.15-67.53,75.05,75.05,0,0,0-73.17,67.53,21,21,0,0,0-14.59,14.23c-.6.05-1.2.12-1.79.2v-45.3a7,7,0,1,0-13.91-1.4,6.55,6.55,0,0,0,0,1.4v50.87a37.63,37.63,0,0,0-15.32,30.78,35.47,35.47,0,0,0,31,36.52,21,21,0,0,0,14.52,14.21,36.73,36.73,0,0,0,36.12,30.44h1.61a21.86,21.86,0,0,0,20.66,14.85h29.72a21.81,21.81,0,0,0,0-43.62H194.72A21.86,21.86,0,0,0,174.06,288h-1.61a22.76,22.76,0,0,1-22-16.91,20.91,20.91,0,0,0,14.08-19.74V190.1a20.89,20.89,0,0,0-14.17-19.77,61.07,61.07,0,0,1,59.18-54,61.07,61.07,0,0,1,59.18,54,20.91,20.91,0,0,0-14.17,19.77v61.24a20.9,20.9,0,0,0,20.88,20.88h1.82a20.91,20.91,0,0,0,20.05-15A35.48,35.48,0,0,0,328.35,220.72ZM194.7,287.07h29.74a7.89,7.89,0,0,1,0,15.77H194.72a7.89,7.89,0,0,1,0-15.77Zm-90-66.35A22.36,22.36,0,0,1,121,198.32v44.8A22.36,22.36,0,0,1,104.71,220.72Zm45.91,30.62a7,7,0,0,1-7,7h-1.8a7,7,0,0,1-7-7h0V190.1a7,7,0,0,1,7-7h1.85a7,7,0,0,1,7,7h0Zm133.66,0a7,7,0,0,1-7,7h-1.85a7,7,0,0,1-7-7h0V190.1a7,7,0,0,1,7-7h1.85a7,7,0,0,1,7,7h0Zm13.91-8.22v-44.8a23.57,23.57,0,0,1,0,44.8Z"/></svg>