<svg id="Capa_1" data-name="Capa 1" xmlns="http://www.w3.org/2000/svg" viewBox="0 0 419.14 419.14"><defs><style>.cls-1{fill:#3c3c3c;}</style></defs><g id="Group_386" data-name="Group 386"><path id="Path_380" data-name="Path 380" class="cls-1" d="M319.18,141.59a93.46,93.46,0,0,1-25.89,7.1,44.69,44.69,0,0,0,19.77-24.84,89.59,89.59,0,0,1-28.5,10.88,44.94,44.94,0,0,0-77.74,30.73,45.91,45.91,0,0,0,1,10.25,127.2,127.2,0,0,1-92.64-47A45,45,0,0,0,129,188.77a44.35,44.35,0,0,1-20.31-5.54v.51a45.15,45.15,0,0,0,36,44.16,45,45,0,0,1-11.79,1.48,40.34,40.34,0,0,1-8.49-.76,45.37,45.37,0,0,0,42,31.3,90.29,90.29,0,0,1-55.72,19.14,84.07,84.07,0,0,1-10.76-.6,127.94,127.94,0,0,0,196.86-106v-1.75c0-2-.07-3.91-.16-5.82A89.55,89.55,0,0,0,319.18,141.59Z"/></g></svg>